<?xml version="1.0" encoding="UTF-8" standalone="no"?>
<svg
   xmlns:dc="http://purl.org/dc/elements/1.1/"
   xmlns:cc="http://creativecommons.org/ns#"
   xmlns:rdf="http://www.w3.org/1999/02/22-rdf-syntax-ns#"
   xmlns:svg="http://www.w3.org/2000/svg"
   xmlns="http://www.w3.org/2000/svg"
   xmlns:xlink="http://www.w3.org/1999/xlink"
   viewBox="0 0 170.88 173.75999"
   height="43.00 "
   width="40.00"
   id="svg96"
   version="1.1">
  <metadata
     id="metadata102">
    <rdf:RDF>
      <cc:Work
         rdf:about="">
        <dc:format>image/svg+xml</dc:format>
        <dc:type
           rdf:resource="http://purl.org/dc/dcmitype/StillImage" />
        <dc:title></dc:title>
      </cc:Work>
    </rdf:RDF>
  </metadata>
  <defs
     id="defs100" />
  <g
     id="g104">
    <image
       xlink:href="logocf.png"
       width="170.88"
       height="173.75999"
       preserveAspectRatio="none"
       id="image106" />
    <g
       id="g108">
      <path
         id="path122"
         d="m 81.843731,165.21367 c 0.398051,-0.0765 0.974051,-0.0736 1.28,0.006 0.305949,0.0801 -0.01974,0.14272 -0.723731,0.13917 -0.704,-0.004 -0.95432,-0.0691 -0.556269,-0.14563 z m 6.416269,0.008 c 0.230998,-0.0924 0.507002,-0.0811 0.613334,0.0252 0.106333,0.10633 -0.08267,0.18196 -0.42,0.16807 -0.372784,-0.0154 -0.448608,-0.0912 -0.193334,-0.19333 z m -5.93391,-18.24316 c 0.31135,-0.0811 0.74335,-0.0758 0.96,0.0119 0.216649,0.0877 -0.03809,0.15404 -0.56609,0.14752 -0.528,-0.007 -0.705261,-0.0782 -0.39391,-0.15938 z m 5.59391,0.01 c 0.22,-0.0888 0.58,-0.0888 0.8,0 0.22,0.0888 0.04,0.16141 -0.4,0.16141 -0.44,0 -0.62,-0.0726 -0.4,-0.16141 z m -56.430404,-3.06805 -0.609596,-0.72 0.72,0.6096 c 0.676621,0.57287 0.865677,0.8304 0.609597,0.8304 -0.06072,0 -0.384723,-0.324 -0.720001,-0.72 z m -3.52,-3.52 -0.609596,-0.72 0.72,0.6096 c 0.676622,0.57287 0.865677,0.8304 0.609596,0.8304 -0.06072,0 -0.384722,-0.324 -0.72,-0.72 z m 17.109585,-8.8 c -0.398039,-0.50754 -0.38672,-0.51886 0.120819,-0.12082 0.308,0.24156 0.56,0.49356 0.56,0.56 0,0.26338 -0.262781,0.0939 -0.680819,-0.43918 z m -4.8,-4.8 c -0.398039,-0.50754 -0.38672,-0.51885 0.120819,-0.12082 0.308,0.24156 0.56,0.49356 0.56,0.56 0,0.26338 -0.262781,0.0939 -0.680819,-0.43918 z M 7.065263,94.853329 c 0.015354,-0.372784 0.091181,-0.448608 0.1933335,-0.193334 0.092439,0.230998 0.08107,0.507001 -0.025264,0.613334 -0.1063335,0.106333 -0.1819651,-0.08267 -0.1680695,-0.42 z M 6.7823837,90.719995 c 0.00652,-0.528 0.078239,-0.705261 0.1593734,-0.393911 0.081134,0.311351 0.075798,0.743351 -0.011856,0.96 -0.087657,0.21665 -0.154039,-0.03809 -0.1475174,-0.566089 z m 18.2281423,-0.48 c 0,-0.44 0.07263,-0.62 0.161404,-0.4 0.08877,0.22 0.08877,0.58 0,0.8 -0.08877,0.22 -0.161404,0.04 -0.161404,-0.4 z m 0,-7.36 c 0,-0.44 0.07263,-0.62 0.161404,-0.4 0.08877,0.22 0.08877,0.58 0,0.8 -0.08877,0.22 -0.161404,0.04 -0.161404,-0.4 z m -18.2281423,-0.8 c 0.00652,-0.528 0.078239,-0.70526 0.1593734,-0.39391 0.081134,0.31135 0.075798,0.74335 -0.011856,0.96 -0.087657,0.216649 -0.154039,-0.03809 -0.1475174,-0.56609 z M 40.64,45.639178 c 0,-0.06645 0.252,-0.318448 0.56,-0.56 0.507539,-0.398038 0.518858,-0.38672 0.120819,0.120819 C 40.902781,45.733037 40.64,45.902551 40.64,45.639178 Z m 3.68,-3.71918 c 0.318557,-0.352 0.651194,-0.64 0.739194,-0.64 0.088,0 -0.100637,0.288 -0.419194,0.64 -0.318557,0.352 -0.651194,0.64 -0.739194,0.64 -0.088,0 0.100637,-0.288 0.419194,-0.64 z m 99.63918,-8.56 c -0.39804,-0.507539 -0.38672,-0.518857 0.12082,-0.120819 0.53304,0.418038 0.70255,0.680819 0.43918,0.680819 -0.0665,0 -0.31845,-0.252 -0.56,-0.56 z M 29.6,30.719998 c 0.866768,-0.88 1.647941,-1.6 1.735941,-1.6 0.088,0 -0.549173,0.72 -1.415941,1.6 -0.866768,0.88 -1.647941,1.6 -1.735941,1.6 -0.088,0 0.549173,-0.72 1.415941,-1.6 z m 62.18,-4.698596 c 0.230998,-0.09244 0.507002,-0.08107 0.613334,0.02526 0.106333,0.106333 -0.08267,0.181965 -0.42,0.16807 -0.372784,-0.01535 -0.448608,-0.09118 -0.193334,-0.19333 z m -7.371542,-0.336123 c 0.752652,-0.0676 1.904652,-0.06665 2.56,0.0021 0.655347,0.06876 0.03954,0.124069 -1.368458,0.122907 -1.408,-0.0012 -1.944195,-0.05742 -1.191542,-0.12502 z M 92.74,7.7814031 c 0.230998,-0.092439 0.507002,-0.08107 0.613334,0.025264 0.106333,0.1063334 -0.08267,0.1819651 -0.42,0.1680704 C 92.56055,7.9593839 92.484726,7.8835563 92.74,7.781404 Z M 84.249654,7.4443925 c 0.841312,-0.066136 2.137312,-0.065339 2.88,0.00176 C 87.872346,7.5132642 87.184,7.5673759 85.6,7.5664008 84.016,7.5654408 83.408346,7.510516 84.249654,7.4443794 Z"
         style="fill:#d0e6f6;stroke-width:0.32" />
      <path
         id="path120"
         d="m 84.56,165.20688 c 0.66,-0.069 1.74,-0.069 2.4,0 0.66,0.069 0.12,0.12552 -1.2,0.12552 -1.32,0 -1.86,-0.0565 -1.2,-0.12552 z m 13.758762,-0.004 9.518758,-0.0922 0.0812,-40.07523 0.0812,-40.075245 25.04002,-0.0029 25.04002,-0.0029 -24.95878,0.08489 -24.95878,0.0849 -0.0812,40.078045 -0.0812,40.07792 -9.6,0.007 -9.6,0.007 9.518762,-0.0921 z M 78.34,164.9014 c 0.230998,-0.0924 0.506998,-0.0811 0.613334,0.0252 0.106333,0.10633 -0.08267,0.18196 -0.42,0.16807 -0.372784,-0.0154 -0.448608,-0.0912 -0.193334,-0.19333 z m 2.54,-17.91333 c 0.22,-0.0888 0.58,-0.0888 0.8,0 0.22,0.0888 0.04,0.1614 -0.4,0.1614 -0.44,0 -0.62,-0.0726 -0.4,-0.1614 z m 8.23377,-31.14808 c 0,-17.159996 0.03877,-24.179995 0.08616,-15.6 0.04739,8.58 0.04739,22.62 0,31.2 -0.04739,8.58 -0.08616,1.56 -0.08616,-15.6 z m -55.554589,29.84 c -0.398039,-0.50754 -0.38672,-0.51886 0.120819,-0.12082 0.308,0.24155 0.56,0.49355 0.56,0.56 0,0.26338 -0.262781,0.0939 -0.680819,-0.43918 z m -3.816408,-3.52 -1.102773,-1.2 1.2,1.10278 c 1.116934,1.02643 1.347132,1.29722 1.102773,1.29722 -0.05347,0 -0.593474,-0.54 -1.2,-1.2 z m -3.693177,-4 -0.609596,-0.72 0.72,0.6096 c 0.676622,0.57287 0.865677,0.8304 0.609596,0.8304 -0.06072,0 -0.384722,-0.324 -0.72,-0.72 z m 19.989585,-5.6 c -0.398039,-0.50754 -0.38672,-0.51886 0.120819,-0.12082 0.308,0.24156 0.56,0.49356 0.56,0.56 0,0.26338 -0.262781,0.0939 -0.680819,-0.43918 z m -3.503402,-3.2 -0.775779,-0.88 0.88,0.77578 c 0.822493,0.72509 1.026749,0.98422 0.775779,0.98422 -0.05732,0 -0.453318,-0.396 -0.88,-0.88 z m -3.216598,-3.52 c -0.398039,-0.50754 -0.38672,-0.51885 0.120819,-0.12082 0.308,0.24156 0.56,0.49356 0.56,0.56 0,0.26338 -0.262781,0.0939 -0.680819,-0.43918 z M 7.065263,93.893329 c 0.015354,-0.372784 0.091181,-0.448608 0.1933335,-0.193334 0.092439,0.230998 0.08107,0.507001 -0.025264,0.613334 -0.1063335,0.106333 -0.1819651,-0.08267 -0.1680695,-0.42 z m 17.92,-2.56 c 0.01535,-0.372784 0.09118,-0.448608 0.193333,-0.193334 0.09244,0.230998 0.08107,0.507001 -0.02526,0.613334 -0.106333,0.106333 -0.181965,-0.08267 -0.16807,-0.42 z M 6.8410141,86.399995 c 0,-2.024 0.051958,-2.852 0.1154621,-1.84 0.063504,1.012 0.063504,2.668 0,3.68 -0.063504,1.012 -0.1154621,0.184 -0.1154621,-1.84 z m 18.1695119,-4.8 c 0,-0.44 0.07263,-0.62 0.161404,-0.4 0.08877,0.22 0.08877,0.58 0,0.8 -0.08877,0.22 -0.161404,0.04 -0.161404,-0.4 z M 7.065263,78.85333 c 0.015354,-0.372784 0.091181,-0.448608 0.1933335,-0.193335 0.092439,0.230999 0.08107,0.506999 -0.025264,0.613335 -0.1063335,0.106333 -0.1819651,-0.08267 -0.1680695,-0.42 z M 120.2162,66.000127 c 6.89491,-0.04813 18.27091,-0.04815 25.28,-4.4e-5 7.00909,0.04811 1.3678,0.08749 -12.5362,0.08751 -13.904,2.6e-5 -19.63871,-0.03934 -12.7438,-0.08747 z M 141.68,53.20057 c 2.86,-0.05303 7.54,-0.05303 10.4,0 2.86,0.05304 0.52,0.09643 -5.2,0.09643 -5.72,0 -8.06,-0.04339 -5.2,-0.09643 z M 39.84,46.399997 c 0.318557,-0.352 0.651194,-0.64 0.739194,-0.64 0.088,0 -0.100637,0.288 -0.419194,0.64 -0.318557,0.352 -0.651194,0.64 -0.739194,0.64 -0.088,0 0.100637,-0.288 0.419194,-0.64 z m 88.62998,-2.96 -1.90998,-1.999999 2,1.909984 c 1.85783,1.774211 2.14643,2.090015 1.90998,2.090015 -0.0495,0 -0.94951,-0.9 -2,-2 z M 45.12,41.159178 c 0,-0.06645 0.252,-0.318448 0.56,-0.56 0.507539,-0.398038 0.518858,-0.38672 0.120819,0.12082 C 45.382781,41.253038 45.12,41.422551 45.12,41.159178 Z m 79.31918,-1.39918 c -0.39804,-0.507539 -0.38672,-0.518858 0.12082,-0.120819 0.53304,0.418038 0.70255,0.680819 0.43918,0.680819 -0.0664,0 -0.31845,-0.252 -0.56,-0.56 z M 24.32,36.679179 c 0,-0.06645 0.252,-0.318448 0.56,-0.56 0.507538,-0.398039 0.518856,-0.38672 0.120818,0.120819 C 24.58278,36.773038 24.32,36.942551 24.32,36.679179 Z m 1.92,-2.24 c 0,-0.06645 0.252,-0.318448 0.56,-0.56 0.507538,-0.398039 0.518856,-0.38672 0.120818,0.120819 C 26.50278,34.533038 26.24,34.702552 26.24,34.439179 Z m 114.88,-3.879181 c -1.31119,-1.32 -2.31198,-2.4 -2.22398,-2.4 0.088,0 1.23279,1.08 2.54398,2.4 1.31119,1.32 2.31198,2.4 2.22398,2.4 -0.088,0 -1.23279,-1.08 -2.54398,-2.4 z m -108,-3.04 c 0.318557,-0.352 0.651194,-0.64 0.739194,-0.64 0.088,0 -0.100637,0.288 -0.419194,0.64 -0.318557,0.352 -0.651194,0.64 -0.739194,0.64 -0.088,0 0.100637,-0.288 0.419194,-0.64 z m 103.47918,-1.2 c -0.39804,-0.507537 -0.38672,-0.518856 0.12082,-0.120817 0.308,0.24155 0.56,0.49355 0.56,0.56 0,0.263371 -0.26278,0.09386 -0.68082,-0.439183 z M 82.00609,25.698241 c 0.31135,-0.08113 0.74335,-0.0758 0.96,0.01186 0.216649,0.08766 -0.03809,0.154038 -0.56609,0.147517 -0.528,-0.0065 -0.705261,-0.07824 -0.39391,-0.159374 z m 6.4,0 c 0.31135,-0.08113 0.74335,-0.0758 0.96,0.01186 0.216649,0.08766 -0.03809,0.154038 -0.56609,0.147517 -0.528,-0.0065 -0.705261,-0.07824 -0.39391,-0.159374 z M 94.98,8.1014031 c 0.230998,-0.092439 0.507002,-0.08107 0.613334,0.025264 0.106333,0.1063334 -0.08267,0.1819651 -0.42,0.1680703 C 94.80055,8.2793838 94.724726,8.2035563 94.98,8.101404 Z M 78.96,7.7880696 c 0.22,-0.088772 0.58,-0.088772 0.8,0 0.22,0.088772 0.04,0.1614035 -0.4,0.1614035 -0.44,0 -0.62,-0.072631 -0.4,-0.1614035 z m 12.82,-0.00667 c 0.230998,-0.092439 0.507002,-0.08107 0.613334,0.025264 0.106333,0.1063335 -0.08267,0.1819651 -0.42,0.1680704 C 91.60055,7.9593848 91.524726,7.8835573 91.78,7.781405 Z"
         style="fill:#9dcced;stroke-width:0.32" />
      <path
         id="path118"
         d="m 79.3,164.9014 c 0.230998,-0.0924 0.506998,-0.0811 0.613334,0.0252 0.106333,0.10634 -0.08267,0.18197 -0.42,0.16807 -0.372784,-0.0154 -0.448608,-0.0912 -0.193334,-0.19333 z m 9.812624,-89.461289 0.0074,-9.360115 9.44,-0.0075 9.439996,-0.0075 -9.35517,0.09233 -9.355175,0.09233 -0.0922,9.275289 -0.09221,9.27529 0.0074,-9.360115 z M 80.9,25.701402 c 0.230998,-0.09244 0.506998,-0.08107 0.613334,0.02526 0.106333,0.106333 -0.08267,0.181965 -0.42,0.16807 C 80.72055,25.879383 80.644726,25.803555 80.9,25.701403 Z m 8.96,0 c 0.230998,-0.09244 0.507002,-0.08107 0.613334,0.02526 0.106333,0.106333 -0.08267,0.181965 -0.42,0.16807 C 89.68055,25.879383 89.604726,25.803555 89.86,25.701402 Z M 80.26,7.7814031 c 0.230998,-0.092439 0.506998,-0.08107 0.613334,0.025264 0.106333,0.1063334 -0.08267,0.1819651 -0.42,0.1680704 C 80.08055,7.9593839 80.004726,7.8835563 80.26,7.781404 Z m 10.22,0.00667 c 0.22,-0.088772 0.58,-0.088772 0.8,0 0.22,0.088772 0.04,0.1614035 -0.4,0.1614035 -0.44,0 -0.62,-0.072631 -0.4,-0.1614035 z"
         style="fill:#6eb9e6;stroke-width:0.32" />
      <path
         id="path116"
         d="m 32.599181,144.71999 c -0.398039,-0.50754 -0.38672,-0.51886 0.120819,-0.12082 0.308,0.24155 0.56,0.49355 0.56,0.56 0,0.26338 -0.262781,0.0939 -0.680819,-0.43918 z m 11.52,-13.76 c -0.398039,-0.50754 -0.38672,-0.51886 0.120819,-0.12082 0.53304,0.41804 0.702554,0.68082 0.439181,0.68082 -0.06645,0 -0.318448,-0.252 -0.56,-0.56 z m -3.2,-3.2 c -0.398039,-0.50754 -0.38672,-0.51885 0.120819,-0.12082 0.308,0.24156 0.56,0.49356 0.56,0.56 0,0.26338 -0.262781,0.0939 -0.680819,-0.43918 z M 42.56,43.359998 c 0.59705,-0.616 1.157546,-1.12 1.245546,-1.12 0.088,0 -0.328496,0.504 -0.925546,1.12 -0.59705,0.615999 -1.157546,1.119999 -1.245546,1.119999 -0.088,0 0.328496,-0.504 0.925546,-1.119999 z M 27.52,33.159179 c 0,-0.06645 0.252,-0.318448 0.56,-0.56 0.507538,-0.398038 0.518856,-0.38672 0.120818,0.120819 C 27.78278,33.253038 27.52,33.422552 27.52,33.159179 Z m 4.32,-4.359181 c 0.318557,-0.352 0.651194,-0.64 0.739194,-0.64 0.088,0 -0.100637,0.288 -0.419194,0.64 -0.318556,0.352 -0.651192,0.64 -0.739192,0.64 -0.088,0 0.100636,-0.288 0.419192,-0.64 z"
         style="fill:#56b1e2;stroke-width:0.32" />
      <path
         id="path114"
         d="M 79.04,164.90222 C 66.543658,163.61521 55.741914,160.15985 45.772067,154.26019 31.487087,145.80705 20.148466,133.05309 13.593347,118.06478 0.70275158,88.590373 7.1327334,53.841223 29.681148,31.12248 41.919411,18.791768 57.233037,11.104429 74.88,8.4329512 c 4.583494,-0.69387 15.993651,-0.7827238 20.48,-0.1594826 25.73198,3.5746734 46.80195,17.8744674 59.26982,40.2253194 0.97601,1.749664 1.87328,3.505209 1.99393,3.901209 l 0.21938,0.72 h -10.06475 -10.06475 l -2.14936,-2.897731 C 118.58544,28.679904 90.586099,20.175229 65.12,29.128883 61.186016,30.512038 54.184742,34.154232 50.822157,36.566891 38.542314,45.377693 30.282399,57.348905 26.705164,71.519996 c -1.471313,5.828556 -1.848192,9.65679 -1.664777,16.910354 0.177952,7.037533 0.807029,10.820777 2.817167,16.94233 6.44276,19.62038 22.546884,34.79146 42.379227,39.92382 5.030003,1.3017 9.672441,1.90349 14.684288,1.90349 H 89.28 v -40.48 -40.479994 h 34.4 34.4 v 9.28 9.279999 h -25.12 -25.12 v 40.159995 40.16 L 94,165.06878 c -7.612,-0.0282 -14.344,-0.10312 -14.96,-0.16656 z"
         style="fill:#24a7df;stroke-width:0.32" />
      <path
         id="path112"
         d="m 123.66178,115.67999 c -1.4e-4,-5.28 0.0437,-7.4849 0.0974,-4.89978 0.0537,2.58513 0.0538,6.90513 2.6e-4,9.6 -0.0536,2.69488 -0.0975,0.57978 -0.0977,-4.70022 z m 27.84,0 c -1.4e-4,-5.28 0.0437,-7.4849 0.0974,-4.89978 0.0537,2.58513 0.0538,6.90513 2.6e-4,9.6 -0.0536,2.69488 -0.0975,0.57978 -0.0977,-4.70022 z"
         style="fill:#64b572;stroke-width:0.32" />
      <path
         id="path110"
         d="m 123.84,115.67999 v -9.44 h 13.76 13.76 v 9.44 9.44 H 137.6 123.84 Z"
         style="fill:#11a54f;stroke-width:0.32" />
    </g>
  </g>
</svg>
